<?xml version="1.0" encoding="UTF-8"?>
<svg id="Layer_2" data-name="Layer 2" xmlns="http://www.w3.org/2000/svg" viewBox="0 0 299.15 35.77">
  <defs>
    <style>
      .cls-1 {
        fill: #4683b3;
      }

      .cls-2 {
        fill: #2c3842;
      }
    </style>
  </defs>
  <g id="Layer_1-2" data-name="Layer 1">
    <g>
      <path class="cls-2" d="M13.2,19.26h5.33c-.07,2-.48,3.69-1.21,5.07-.73,1.38-1.78,2.42-3.12,3.12-1.35.71-2.98,1.06-4.88,1.06-1.48,0-2.79-.25-3.94-.74-1.15-.49-2.13-1.22-2.93-2.19-.81-.97-1.42-2.16-1.82-3.58-.41-1.42-.61-3.06-.61-4.92v-4.53c0-1.86.22-3.5.65-4.93s1.06-2.63,1.87-3.6,1.8-1.7,2.95-2.2c1.15-.5,2.46-.74,3.91-.74,1.94,0,3.57.36,4.88,1.09,1.31.73,2.32,1.79,3.03,3.2.71,1.41,1.15,3.12,1.29,5.13h-5.35c-.04-1.27-.18-2.27-.43-3-.25-.73-.65-1.24-1.18-1.54-.54-.3-1.28-.45-2.24-.45-.71,0-1.32.13-1.83.38-.51.25-.93.65-1.26,1.2s-.57,1.27-.72,2.16c-.15.89-.23,1.98-.23,3.26v4.56c0,1.26.07,2.33.2,3.22.13.89.35,1.61.64,2.17.29.56.69.97,1.2,1.23.51.26,1.15.38,1.93.38.9,0,1.63-.13,2.19-.4s.97-.75,1.24-1.45c.27-.7.42-1.69.46-2.97Z"/>
      <path class="cls-2" d="M29.52,28.52c-1.36,0-2.56-.21-3.6-.62-1.04-.42-1.93-1.02-2.65-1.8-.72-.79-1.27-1.74-1.65-2.87-.38-1.12-.57-2.41-.57-3.85v-1.63c0-1.61.18-3.03.55-4.24s.89-2.24,1.56-3.07,1.5-1.45,2.48-1.86c.98-.41,2.1-.61,3.34-.61s2.34.21,3.29.61c.95.41,1.73,1.02,2.35,1.83s1.09,1.82,1.41,3.01c.32,1.2.48,2.59.48,4.18v2.35h-13.29v-3.61h8.25v-.46c0-.81-.08-1.48-.26-2.03-.17-.54-.44-.95-.81-1.22s-.86-.4-1.47-.4c-.51,0-.95.1-1.3.31-.35.21-.64.53-.84.97-.21.44-.36,1.01-.46,1.71-.1.7-.15,1.54-.15,2.52v1.63c0,.92.08,1.68.24,2.3.16.62.39,1.12.71,1.5s.69.66,1.15.82.98.25,1.58.25c.9,0,1.72-.16,2.45-.49.73-.32,1.35-.77,1.86-1.33l2.05,3.12c-.35.46-.84.93-1.47,1.39-.62.46-1.37.84-2.24,1.14s-1.87.44-3.01.44Z"/>
      <path class="cls-2" d="M44.51,12.55v15.6h-5.15V8.32h4.8l.35,4.23ZM43.75,17.56l-1.38.04c-.02-1.49.12-2.83.43-4.01.31-1.18.76-2.2,1.34-3.03s1.27-1.48,2.08-1.92c.81-.45,1.72-.67,2.73-.67.77,0,1.48.13,2.12.4.64.27,1.19.7,1.66,1.28.46.59.82,1.36,1.08,2.33.26.96.38,2.16.38,3.57v12.61h-5.15v-12.65c0-.86-.08-1.52-.26-1.99-.17-.47-.42-.8-.76-.99-.34-.19-.77-.28-1.29-.28-.49,0-.92.13-1.3.4s-.69.64-.94,1.13c-.25.48-.44,1.05-.57,1.7-.13.65-.19,1.34-.17,2.09Z"/>
      <path class="cls-2" d="M66.4,8.32v3.87h-10.12v-3.87h10.12ZM58.61,3.43h5.11v18.68c0,.54.05.96.17,1.25.11.3.28.51.5.62.23.12.52.17.89.17.27,0,.51-.02.73-.05s.38-.06.5-.1v4.01c-.4.16-.83.28-1.27.37-.45.08-.97.13-1.58.13-1.03,0-1.92-.19-2.67-.58-.75-.38-1.33-1.01-1.75-1.88-.42-.87-.62-2-.62-3.41V3.43Z"/>
      <path class="cls-2" d="M76.86,28.52c-1.36,0-2.56-.21-3.6-.62-1.04-.42-1.93-1.02-2.65-1.8-.72-.79-1.27-1.74-1.65-2.87-.38-1.12-.57-2.41-.57-3.85v-1.63c0-1.61.18-3.03.55-4.24s.89-2.24,1.56-3.07,1.5-1.45,2.48-1.86c.98-.41,2.1-.61,3.34-.61s2.34.21,3.29.61c.95.41,1.73,1.02,2.35,1.83s1.09,1.82,1.41,3.01c.32,1.2.48,2.59.48,4.18v2.35h-13.29v-3.61h8.25v-.46c0-.81-.08-1.48-.26-2.03-.17-.54-.44-.95-.81-1.22s-.86-.4-1.47-.4c-.51,0-.95.1-1.3.31-.35.21-.64.53-.84.97-.21.44-.36,1.01-.46,1.71-.1.7-.15,1.54-.15,2.52v1.63c0,.92.08,1.68.24,2.3.16.62.39,1.12.71,1.5s.69.66,1.15.82.98.25,1.58.25c.9,0,1.72-.16,2.45-.49.73-.32,1.35-.77,1.86-1.33l2.05,3.12c-.35.46-.84.93-1.47,1.39-.62.46-1.37.84-2.24,1.14s-1.87.44-3.01.44Z"/>
      <path class="cls-2" d="M91.89,12.74v15.41h-5.13V8.32h4.84l.29,4.42ZM96.56,8.17l-.07,5.11c-.23-.05-.51-.09-.83-.11-.32-.02-.61-.04-.85-.04-.58,0-1.06.09-1.47.27s-.74.44-1,.79c-.26.35-.46.78-.6,1.29-.13.51-.21,1.09-.24,1.74l-.97-.37c0-1.29.1-2.48.3-3.56.2-1.08.5-2.02.91-2.82.4-.8.89-1.42,1.46-1.86.57-.44,1.21-.66,1.93-.66.25,0,.5.02.78.06.28.04.49.09.65.16Z"/>
      <path class="cls-2" d="M114.88,21.13c0-.48-.04-.91-.13-1.3-.09-.39-.27-.75-.54-1.08-.27-.33-.67-.66-1.19-.99s-1.19-.67-2.02-1.03c-.99-.42-1.95-.86-2.88-1.33-.93-.47-1.77-1.02-2.51-1.64s-1.33-1.36-1.77-2.21c-.43-.85-.65-1.85-.65-3s.2-2.14.61-3.06c.41-.92.99-1.7,1.75-2.36.76-.65,1.65-1.16,2.67-1.51s2.16-.53,3.42-.53c1.71,0,3.19.35,4.44,1.06,1.25.71,2.22,1.68,2.91,2.91s1.04,2.65,1.04,4.25h-5.35c0-.76-.11-1.43-.32-2.01s-.55-1.04-1.02-1.37c-.46-.33-1.06-.5-1.8-.5-.68,0-1.25.14-1.7.41-.45.28-.78.65-.99,1.12-.21.47-.32,1-.32,1.59,0,.44.11.83.32,1.18s.51.66.89.93c.38.28.83.54,1.35.8.52.26,1.09.51,1.71.75,1.21.48,2.28,1,3.21,1.57.93.57,1.7,1.2,2.33,1.91.62.7,1.09,1.49,1.41,2.37s.48,1.88.48,3.01-.19,2.12-.58,3.03-.94,1.69-1.68,2.35-1.62,1.16-2.65,1.51-2.18.53-3.46.53-2.4-.17-3.5-.52c-1.1-.35-2.07-.88-2.91-1.59s-1.49-1.62-1.97-2.73c-.48-1.11-.71-2.42-.71-3.93h5.37c0,.81.08,1.49.24,2.06.16.57.4,1.02.73,1.36s.74.59,1.22.75,1.04.25,1.66.25c.71,0,1.27-.13,1.7-.4.42-.27.72-.63.91-1.08.18-.45.27-.97.27-1.54Z"/>
      <path class="cls-2" d="M132.43,8.32v3.87h-10.12v-3.87h10.12ZM124.64,3.43h5.11v18.68c0,.54.05.96.17,1.25.11.3.28.51.5.62.23.12.52.17.89.17.27,0,.51-.02.73-.05s.38-.06.5-.1v4.01c-.4.16-.83.28-1.27.37-.45.08-.97.13-1.58.13-1.03,0-1.92-.19-2.67-.58-.75-.38-1.33-1.01-1.75-1.88-.42-.87-.62-2-.62-3.41V3.43Z"/>
      <path class="cls-2" d="M140.36,12.74v15.41h-5.13V8.32h4.84l.29,4.42ZM145.03,8.17l-.07,5.11c-.23-.05-.51-.09-.83-.11-.32-.02-.61-.04-.85-.04-.58,0-1.06.09-1.47.27s-.74.44-1,.79c-.26.35-.46.78-.6,1.29-.13.51-.21,1.09-.24,1.74l-.97-.37c0-1.29.1-2.48.3-3.56.2-1.08.5-2.02.91-2.82.4-.8.89-1.42,1.46-1.86.57-.44,1.21-.66,1.93-.66.25,0,.5.02.78.06.28.04.49.09.65.16Z"/>
      <path class="cls-2" d="M155.36,28.52c-1.36,0-2.56-.21-3.6-.62-1.04-.42-1.93-1.02-2.65-1.8-.72-.79-1.27-1.74-1.65-2.87-.38-1.12-.57-2.41-.57-3.85v-1.63c0-1.61.18-3.03.55-4.24s.89-2.24,1.56-3.07,1.5-1.45,2.48-1.86c.98-.41,2.1-.61,3.34-.61s2.34.21,3.29.61c.95.41,1.73,1.02,2.35,1.83s1.09,1.82,1.41,3.01c.32,1.2.48,2.59.48,4.18v2.35h-13.29v-3.61h8.25v-.46c0-.81-.08-1.48-.26-2.03-.17-.54-.44-.95-.81-1.22s-.86-.4-1.47-.4c-.51,0-.95.1-1.3.31-.35.21-.64.53-.84.97-.21.44-.36,1.01-.46,1.71-.1.7-.15,1.54-.15,2.52v1.63c0,.92.08,1.68.24,2.3.16.62.39,1.12.71,1.5s.69.66,1.15.82.98.25,1.58.25c.9,0,1.72-.16,2.45-.49.73-.32,1.35-.77,1.86-1.33l2.05,3.12c-.35.46-.84.93-1.47,1.39-.62.46-1.37.84-2.24,1.14s-1.87.44-3.01.44Z"/>
      <path class="cls-2" d="M173.11,28.52c-1.36,0-2.56-.21-3.6-.62-1.04-.42-1.93-1.02-2.65-1.8-.72-.79-1.27-1.74-1.65-2.87-.38-1.12-.57-2.41-.57-3.85v-1.63c0-1.61.18-3.03.55-4.24s.89-2.24,1.56-3.07,1.5-1.45,2.48-1.86c.98-.41,2.1-.61,3.34-.61s2.34.21,3.29.61c.95.41,1.73,1.02,2.35,1.83s1.09,1.82,1.41,3.01c.32,1.2.48,2.59.48,4.18v2.35h-13.29v-3.61h8.25v-.46c0-.81-.08-1.48-.26-2.03-.17-.54-.44-.95-.81-1.22s-.86-.4-1.47-.4c-.51,0-.95.1-1.3.31-.35.21-.64.53-.84.97-.21.44-.36,1.01-.46,1.71-.1.7-.15,1.54-.15,2.52v1.63c0,.92.08,1.68.24,2.3.16.62.39,1.12.71,1.5s.69.66,1.15.82.98.25,1.58.25c.9,0,1.72-.16,2.45-.49.73-.32,1.35-.77,1.86-1.33l2.05,3.12c-.35.46-.84.93-1.47,1.39-.62.46-1.37.84-2.24,1.14s-1.87.44-3.01.44Z"/>
      <path class="cls-2" d="M191.7,8.32v3.87h-10.12v-3.87h10.12ZM183.91,3.43h5.11v18.68c0,.54.05.96.17,1.25.11.3.28.51.5.62.23.12.52.17.89.17.27,0,.51-.02.73-.05s.38-.06.5-.1v4.01c-.4.16-.83.28-1.27.37-.45.08-.97.13-1.58.13-1.03,0-1.92-.19-2.67-.58-.75-.38-1.33-1.01-1.75-1.88-.42-.87-.62-2-.62-3.41V3.43Z"/>
      <path class="cls-1" d="M211.68,19.26h5.33c-.07,2-.48,3.69-1.21,5.07-.73,1.38-1.78,2.42-3.12,3.12-1.35.71-2.98,1.06-4.88,1.06-1.48,0-2.79-.25-3.94-.74-1.15-.49-2.13-1.22-2.93-2.19-.81-.97-1.42-2.16-1.82-3.58-.41-1.42-.61-3.06-.61-4.92v-4.53c0-1.86.22-3.5.65-4.93s1.06-2.63,1.87-3.6,1.8-1.7,2.95-2.2c1.15-.5,2.46-.74,3.91-.74,1.94,0,3.57.36,4.88,1.09,1.31.73,2.32,1.79,3.03,3.2.71,1.41,1.15,3.12,1.29,5.13h-5.35c-.04-1.27-.18-2.27-.43-3-.25-.73-.65-1.24-1.18-1.54-.54-.3-1.28-.45-2.24-.45-.71,0-1.32.13-1.83.38-.51.25-.93.65-1.26,1.2s-.57,1.27-.72,2.16c-.15.89-.23,1.98-.23,3.26v4.56c0,1.26.07,2.33.2,3.22.13.89.35,1.61.64,2.17.29.56.69.97,1.2,1.23.51.26,1.15.38,1.93.38.9,0,1.63-.13,2.19-.4s.97-.75,1.24-1.45c.27-.7.42-1.69.46-2.97Z"/>
      <path class="cls-1" d="M229.31,16.04l.02,3.08h-1.89c-.49,0-.91.08-1.27.24-.36.16-.66.38-.91.67s-.42.62-.54,1c-.12.38-.17.78-.17,1.21,0,.48.07.88.2,1.21.13.33.34.58.6.75.27.17.59.26.95.26.56,0,1.05-.12,1.47-.35.42-.23.72-.51.93-.84.2-.33.27-.63.19-.92l1.17,2c-.15.45-.34.92-.6,1.41-.25.49-.56.94-.94,1.36-.38.42-.85.75-1.4,1.02s-1.21.39-1.97.39c-1.06,0-2.03-.24-2.91-.73-.88-.49-1.57-1.17-2.08-2.05-.51-.88-.76-1.92-.76-3.13,0-1,.16-1.91.49-2.72.32-.81.81-1.5,1.46-2.07s1.47-1,2.46-1.31c.99-.31,2.15-.46,3.48-.46h2.03ZM228.69,23.59v-9.16c0-.6-.07-1.07-.21-1.43-.14-.35-.35-.61-.62-.78-.28-.17-.61-.25-1-.25-.44,0-.81.09-1.1.27s-.51.45-.65.79c-.14.34-.21.75-.21,1.23h-5.15c0-.85.17-1.66.5-2.43s.82-1.44,1.46-2.02c.64-.58,1.41-1.04,2.3-1.37.89-.33,1.89-.5,3.01-.5,1.32,0,2.49.22,3.52.67,1.03.45,1.84,1.15,2.44,2.12.6.97.9,2.22.9,3.76v8.83c0,1.11.06,2.02.17,2.71s.29,1.29.52,1.8v.31h-5.17c-.23-.55-.41-1.24-.52-2.06-.12-.83-.17-1.66-.17-2.5Z"/>
      <path class="cls-1" d="M242.55,12.13v23.64h-5.11V8.32h4.73l.38,3.81ZM252.85,17.56v1.32c0,1.55-.13,2.92-.4,4.11s-.67,2.2-1.2,3.02c-.53.82-1.19,1.45-1.99,1.87-.79.42-1.72.63-2.79.63-.99,0-1.84-.24-2.56-.71-.71-.47-1.32-1.12-1.81-1.95s-.88-1.8-1.17-2.91c-.29-1.11-.52-2.3-.68-3.57v-2.05c.15-1.36.36-2.61.64-3.75.28-1.14.67-2.14,1.16-2.98.5-.84,1.1-1.49,1.81-1.95s1.57-.69,2.56-.69c1.08,0,2.01.2,2.81.59.8.39,1.47.98,2,1.77.53.79.93,1.79,1.2,3,.27,1.21.4,2.63.4,4.25ZM247.72,18.88v-1.32c0-.95-.05-1.77-.16-2.44-.1-.67-.27-1.22-.49-1.65-.22-.43-.51-.74-.86-.93-.35-.2-.79-.29-1.3-.29s-.94.1-1.31.29c-.37.2-.68.48-.91.85-.23.37-.41.83-.53,1.36-.12.53-.19,1.13-.2,1.8v3.59c.02.79.13,1.5.32,2.11s.5,1.1.93,1.46,1.01.54,1.74.54c.53,0,.96-.11,1.31-.33s.63-.55.85-.99c.22-.44.38-1,.47-1.67s.14-1.47.14-2.38Z"/>
      <path class="cls-1" d="M255.71,3.17c0-.79.25-1.45.76-1.96.51-.51,1.19-.77,2.06-.77s1.53.26,2.03.77c.5.51.75,1.17.75,1.96s-.25,1.45-.75,1.97-1.18.78-2.03.78-1.55-.26-2.06-.78c-.51-.52-.76-1.18-.76-1.97ZM261.1,8.32v19.83h-5.15V8.32h5.15Z"/>
      <path class="cls-1" d="M273.57,8.32v3.87h-10.12v-3.87h10.12ZM265.78,3.43h5.11v18.68c0,.54.05.96.17,1.25.11.3.28.51.5.62.23.12.52.17.89.17.27,0,.51-.02.73-.05s.38-.06.5-.1v4.01c-.4.16-.83.28-1.27.37-.45.08-.97.13-1.58.13-1.03,0-1.92-.19-2.67-.58-.75-.38-1.33-1.01-1.75-1.88-.42-.87-.62-2-.62-3.41V3.43Z"/>
      <path class="cls-1" d="M285.73,16.04l.02,3.08h-1.89c-.49,0-.91.08-1.27.24-.36.16-.66.38-.91.67s-.42.62-.54,1c-.12.38-.17.78-.17,1.21,0,.48.07.88.2,1.21.13.33.34.58.6.75.27.17.59.26.95.26.56,0,1.05-.12,1.47-.35.42-.23.72-.51.93-.84.2-.33.27-.63.19-.92l1.17,2c-.15.45-.34.92-.6,1.41-.25.49-.56.94-.94,1.36-.38.42-.85.75-1.4,1.02s-1.21.39-1.97.39c-1.06,0-2.03-.24-2.91-.73-.88-.49-1.57-1.17-2.08-2.05-.51-.88-.76-1.92-.76-3.13,0-1,.16-1.91.49-2.72.32-.81.81-1.5,1.46-2.07s1.47-1,2.46-1.31c.99-.31,2.15-.46,3.48-.46h2.03ZM285.11,23.59v-9.16c0-.6-.07-1.07-.21-1.43-.14-.35-.35-.61-.62-.78-.28-.17-.61-.25-1-.25-.44,0-.81.09-1.1.27s-.51.45-.65.79c-.14.34-.21.75-.21,1.23h-5.15c0-.85.17-1.66.5-2.43s.82-1.44,1.46-2.02c.64-.58,1.41-1.04,2.3-1.37.89-.33,1.89-.5,3.01-.5,1.32,0,2.49.22,3.52.67,1.03.45,1.84,1.15,2.44,2.12.6.97.9,2.22.9,3.76v8.83c0,1.11.06,2.02.17,2.71s.29,1.29.52,1.8v.31h-5.17c-.23-.55-.41-1.24-.52-2.06-.12-.83-.17-1.66-.17-2.5Z"/>
      <path class="cls-1" d="M299.15,0v28.15h-5.15V0h5.15Z"/>
    </g>
  </g>
</svg>